<svg width="14" height="14" viewBox="0 0 14 14" fill="none" xmlns="http://www.w3.org/2000/svg">
<path fill-rule="evenodd" clip-rule="evenodd" d="M3.66659 0.333328C2.78253 0.333328 1.93468 0.684518 1.30956 1.30964C0.684441 1.93476 0.333252 2.78261 0.333252 3.66666V10.3333C0.333252 11.2174 0.684441 12.0652 1.30956 12.6904C1.93468 13.3155 2.78253 13.6667 3.66659 13.6667H10.3333C11.2173 13.6667 12.0652 13.3155 12.6903 12.6904C13.3154 12.0652 13.6666 11.2174 13.6666 10.3333V3.66666C13.6666 2.78261 13.3154 1.93476 12.6903 1.30964C12.0652 0.684518 11.2173 0.333328 10.3333 0.333328H3.66659ZM9.48659 6.12266C9.54647 6.05875 9.59318 5.98367 9.62404 5.90171C9.65491 5.81975 9.66933 5.73251 9.66648 5.64498C9.66364 5.55744 9.64358 5.47133 9.60745 5.39154C9.57132 5.31176 9.51983 5.23988 9.45592 5.18C9.39201 5.12011 9.31693 5.0734 9.23497 5.04254C9.15301 5.01167 9.06577 4.99725 8.97823 5.0001C8.8907 5.00294 8.80458 5.023 8.7248 5.05913C8.64502 5.09526 8.57314 5.14675 8.51325 5.21066L6.45792 7.404L5.44258 6.502C5.30956 6.39141 5.13875 6.33686 4.96625 6.34987C4.79375 6.36289 4.63306 6.44245 4.51813 6.57174C4.4032 6.70104 4.34303 6.86994 4.35033 7.04278C4.35763 7.21562 4.43183 7.37885 4.55725 7.49799L6.05725 8.83133C6.18704 8.94662 6.35669 9.00674 6.53011 8.99889C6.70354 8.99105 6.86706 8.91587 6.98592 8.78933L9.48592 6.12266H9.48659Z" fill="#219FE6"/>
</svg>
